<svg width="227" height="34" viewBox="0 0 227 34" fill="none" xmlns="http://www.w3.org/2000/svg">
<g clip-path="url(#clip0_2069_410)">
<g clip-path="url(#clip1_2069_410)">
<mask id="mask0_2069_410" style="mask-type:luminance" maskUnits="userSpaceOnUse" x="4" y="1" width="32" height="33">
<path d="M4 27.3627C4 30.9141 6.88321 33.7973 10.4346 33.7973H35.5688L19.6517 17.8893L16.6495 20.8641C16.0179 21.4865 15.0111 21.4865 14.3795 20.8641C14.0775 20.562 13.9127 20.1593 13.9127 19.7291L13.3636 14.2098C13.3636 12.8826 9.27215 6.96062 8.32939 6.01786L4 1.68848V27.3627Z" fill="white"/>
</mask>
<g mask="url(#mask0_2069_410)">
<path d="M19.7843 -14.1007L-12.0588 17.7424L19.7843 49.5855L51.6274 17.7424L19.7843 -14.1007Z" fill="#000"/>
</g>
<mask id="mask1_2069_410" style="mask-type:luminance" maskUnits="userSpaceOnUse" x="5" y="0" width="30" height="19">
<path d="M9.62905 4.67231C10.526 5.5693 16.5213 9.54172 17.7936 9.54172L23.2122 10.2007C24.2007 10.2007 24.997 10.9971 24.997 11.9856C24.997 12.4615 24.8048 12.91 24.4753 13.2487L21.5829 16.1411L23.5142 18.2646C23.5142 18.2646 35.1111 15.418 34.7175 8.58065C34.4795 4.16889 30.5986 0.654126 25.1892 0.654126L5.2356 0.452759L9.62905 4.67231Z" fill="white"/>
</mask>
<g mask="url(#mask1_2069_410)">
<path d="M35.1111 0.452759H5.2356V18.2554H35.1111V0.452759Z" fill="#000"/>
</g>
<path d="M55.8153 25.0562H62.1858V22.6398H55.8153V25.0562ZM52.0259 25.0562H54.4332V8.17798H52.0259V25.0562Z" fill="#000"/>
<path d="M78.6521 8.17798V18.228C78.6521 20.8366 77.1419 22.6489 74.6339 22.6489C72.126 22.6489 70.6157 20.8366 70.6157 18.228V8.17798H68.2085V17.4225C68.2085 21.8709 70.1123 25.0562 74.6339 25.0562C79.1555 25.0562 81.0594 21.8618 81.0594 17.4225V8.17798H78.6521Z" fill="#000"/>
<mask id="mask2_2069_410" style="mask-type:luminance" maskUnits="userSpaceOnUse" x="68" y="8" width="14" height="18">
<path d="M78.6521 8.17798V18.228C78.6521 20.8366 77.1419 22.6489 74.6339 22.6489C72.126 22.6489 70.6157 20.8366 70.6157 18.228V8.17798H68.2085V17.4225C68.2085 21.8709 70.1123 25.0562 74.6339 25.0562C79.1555 25.0562 81.0594 21.8618 81.0594 17.4225V8.17798H78.6521Z" fill="white"/>
</mask>
<g mask="url(#mask2_2069_410)">
<path d="M81.0593 8.17798H68.1993V25.0562H81.0593V8.17798Z" fill="#000"/>
</g>
<path d="M86.1485 25.0379H88.5557V15.1526L86.1485 12.7271V25.0379ZM86.1485 10.6951L100.217 25.0471V8.16887H97.8095V19.3264L86.1577 7.37256V10.6951H86.1485Z" fill="#000"/>
<mask id="mask3_2069_410" style="mask-type:luminance" maskUnits="userSpaceOnUse" x="86" y="7" width="15" height="19">
<path d="M86.1485 25.0379H88.5557V15.1526L86.1485 12.7271V25.0379ZM86.1485 10.6951L100.217 25.0471V8.16887H97.8095V19.3264L86.1577 7.37256V10.6951H86.1485Z" fill="white"/>
</mask>
<g mask="url(#mask3_2069_410)">
<path d="M100.217 7.37256H86.1485V25.0471H100.217V7.37256Z" fill="#000"/>
</g>
<path d="M124.61 8.16882V10.5761H130.66C132.417 10.5761 133.845 11.5097 133.845 13.7156C133.845 15.9214 132.362 16.8093 130.605 16.8093H124.6V25.047H127.008V19.2165H129.644L133.836 25.047H136.646L132.298 18.9969C134.806 18.3195 136.243 16.1869 136.243 13.5691C136.243 10.3747 134.211 8.16882 129.818 8.16882H124.6H124.61Z" fill="#000"/>
<mask id="mask4_2069_410" style="mask-type:luminance" maskUnits="userSpaceOnUse" x="124" y="8" width="13" height="18">
<path d="M124.61 8.16882V10.5761H130.66C132.417 10.5761 133.845 11.5097 133.845 13.7156C133.845 15.9214 132.362 16.8093 130.605 16.8093H124.6V25.047H127.008V19.2165H129.644L133.836 25.047H136.646L132.298 18.9969C134.806 18.3195 136.243 16.1869 136.243 13.5691C136.243 10.3747 134.211 8.16882 129.818 8.16882H124.6H124.61Z" fill="white"/>
</mask>
<g mask="url(#mask4_2069_410)">
<path d="M136.664 8.17798H124.61V25.0562H136.664V8.17798Z" fill="#000"/>
</g>
<path d="M151.034 8.16882V10.5761H157.084C158.842 10.5761 160.279 11.5097 160.279 13.7156C160.279 15.9214 158.796 16.8093 157.039 16.8093H151.034V25.047H153.442V19.2165H156.078L160.27 25.047H163.08L158.732 18.9969C161.24 18.3195 162.677 16.1869 162.677 13.5691C162.677 10.3747 160.645 8.16882 156.252 8.16882H151.025H151.034Z" fill="#000"/>
<mask id="mask5_2069_410" style="mask-type:luminance" maskUnits="userSpaceOnUse" x="151" y="8" width="13" height="18">
<path d="M151.034 8.16882V10.5761H157.084C158.842 10.5761 160.279 11.5097 160.279 13.7156C160.279 15.9214 158.796 16.8093 157.039 16.8093H151.034V25.047H153.442V19.2165H156.078L160.27 25.047H163.08L158.732 18.9969C161.24 18.3195 162.677 16.1869 162.677 13.5691C162.677 10.3747 160.645 8.16882 156.252 8.16882H151.025H151.034Z" fill="white"/>
</mask>
<g mask="url(#mask5_2069_410)">
<path d="M163.089 8.17798H151.034V25.0562H163.089V8.17798Z" fill="#000"/>
</g>
<path d="M191.006 8.17798H188.598V25.0562H191.006V8.17798Z" fill="#000"/>
<mask id="mask6_2069_410" style="mask-type:luminance" maskUnits="userSpaceOnUse" x="188" y="8" width="4" height="18">
<path d="M191.006 8.17798H188.598V25.0562H191.006V8.17798Z" fill="white"/>
</mask>
<g mask="url(#mask6_2069_410)">
<path d="M191.006 8.17798H188.598V25.0562H191.006V8.17798Z" fill="#000"/>
</g>
<path d="M200.918 25.0562H207.289V22.6398H200.918V25.0562ZM197.138 25.0562H199.545V8.17798H197.138V25.0562Z" fill="#000"/>
<path d="M212.726 12.663C212.726 14.9238 214.053 16.6079 218.748 17.4134C221.064 17.8161 222.593 18.6399 222.593 20.0037C222.593 21.6146 221.211 22.6398 218.675 22.6398C216.625 22.594 214.694 21.697 213.348 20.1501L212.14 22.3103C213.806 24.1134 216.167 25.1111 218.62 25.047C222.565 25.047 225 22.8411 225 19.903C225 16.9649 222.968 15.7841 218.95 15.0061C216.286 14.4753 215.133 13.8712 215.133 12.5714C215.133 11.0612 216.442 10.1825 218.748 10.1825C220.378 10.1642 221.952 10.8049 223.096 11.9673L224.249 9.77976C222.739 8.46172 220.799 7.74778 218.803 7.76609C214.858 7.76609 212.726 9.92621 212.726 12.663Z" fill="#000"/>
<mask id="mask7_2069_410" style="mask-type:luminance" maskUnits="userSpaceOnUse" x="212" y="7" width="13" height="19">
<path d="M212.726 12.663C212.726 14.9238 214.053 16.6079 218.748 17.4134C221.064 17.8161 222.593 18.6399 222.593 20.0037C222.593 21.6146 221.211 22.6398 218.675 22.6398C216.625 22.594 214.694 21.697 213.348 20.1501L212.14 22.3103C213.806 24.1134 216.167 25.1111 218.62 25.047C222.565 25.047 225 22.8411 225 19.903C225 16.9649 222.968 15.7841 218.95 15.0061C216.286 14.4753 215.133 13.8712 215.133 12.5714C215.133 11.0612 216.442 10.1825 218.748 10.1825C220.378 10.1642 221.952 10.8049 223.096 11.9673L224.249 9.77976C222.739 8.46172 220.799 7.74778 218.803 7.76609C214.858 7.76609 212.726 9.92621 212.726 12.663Z" fill="white"/>
</mask>
<g mask="url(#mask7_2069_410)">
<path d="M225.009 7.76611H212.149V25.047H225.009V7.76611Z" fill="#000"/>
</g>
<path d="M104.72 25.0562H107.329L108.875 21.633H115.118L114.065 19.2257H109.974L112.756 13.1023L116.537 21.4316H116.546L118.175 25.0562H120.793L112.756 7.77527L104.72 25.0562Z" fill="#000"/>
<mask id="mask8_2069_410" style="mask-type:luminance" maskUnits="userSpaceOnUse" x="104" y="7" width="17" height="19">
<path d="M104.72 25.0562H107.329L108.875 21.633H115.118L114.065 19.2257H109.974L112.756 13.1023L116.537 21.4316H116.546L118.175 25.0562H120.793L112.756 7.77527L104.72 25.0562Z" fill="white"/>
</mask>
<g mask="url(#mask8_2069_410)">
<path d="M120.793 7.77527H104.72V25.0562H120.793V7.77527Z" fill="#000"/>
</g>
<path d="M167.675 25.0562H170.283L171.821 21.633H178.036L176.983 19.2257H172.928L175.711 13.1023L179.491 21.4316H179.5L181.13 25.0562H183.747L175.711 7.77527L167.675 25.0562Z" fill="#000"/>
<mask id="mask9_2069_410" style="mask-type:luminance" maskUnits="userSpaceOnUse" x="167" y="7" width="17" height="19">
<path d="M167.675 25.0562H170.283L171.821 21.633H178.036L176.983 19.2257H172.928L175.711 13.1023L179.491 21.4316H179.5L181.13 25.0562H183.747L175.711 7.77527L167.675 25.0562Z" fill="white"/>
</mask>
<g mask="url(#mask9_2069_410)">
<path d="M183.747 7.77527H167.675V25.0562H183.747V7.77527Z" fill="#000"/>
</g>
</g>
</g>
<defs>
<linearGradient id="paint0_linear_2069_410" x1="38.0746" y1="30.9198" x2="7.04866" y2="6.20417" gradientUnits="userSpaceOnUse">
<stop stop-color="#FFC103"/>
<stop offset="0.45" stop-color="#FF569B"/>
<stop offset="0.76" stop-color="#7E01FF"/>
<stop offset="1" stop-color="#7E01FF"/>
</linearGradient>
<linearGradient id="paint1_linear_2069_410" x1="5.21729" y1="9.01771" x2="5.71073" y2="9.01771" gradientUnits="userSpaceOnUse">
<stop stop-color="#7E01FF"/>
<stop offset="0.42" stop-color="#7E01FF"/>
<stop offset="0.52" stop-color="#7E01FF"/>
<stop offset="1" stop-color="#7E01FF"/>
</linearGradient>
<clipPath id="clip0_2069_410">
<rect width="227" height="33.6648" fill="white"/>
</clipPath>
<clipPath id="clip1_2069_410">
<rect width="221" height="33.3537" fill="white" transform="translate(4 0.452759)"/>
</clipPath>
</defs>
</svg>